# xmcd CD database file
#
# Track frame offsets:
#	150
#	19685
#	45899
#	69811
#	108403
#	136098
#	149678
#	174893
#	188590
#	234465
#
# Disc length: 3555 seconds
#
# Revision: 0
# Processed by: cddbd v1.5.2PL0 Copyright (c) Steve Scherf et al.
# Submitted via: CDex 1.50beta9
#
DISCID=750de10a
DTITLE=Various Artist - Best of Hearts of Space: First Flight
DYEAR=2008
DGENRE=New Age
TTITLE0=Kitaro - Free Flight
TTITLE1=Vangelis, Irene Papas - Neranzoula
TTITLE2=Thomas de Hartmann - The Great Prayer
TTITLE3=Michael Stearns - In the Beginning ...
TTITLE4=Michael Stearns - Life in the Gravity Well
TTITLE5=Michael Stearns - As the Earth Kissed the Moon
TTITLE6=Deuter - Haleakala Mystery
TTITLE7=Paul Lloyd Warner, Steve Kindler - Prisms
TTITLE8=Charles Lloyd - Pathless Path
TTITLE9=David Darling - Cycle Song
EXTD=YEAR: 2008
EXTT0=
EXTT1=
EXTT2=
EXTT3=
EXTT4=
EXTT5=
EXTT6=
EXTT7=
EXTT8=
EXTT9=
PLAYORDER=
